# xmcd CD database file
#
# Track frame offsets:
#	183
#	10468
#	24950
#	38338
#	50165
#	63735
#	76278
#	89330
#	102233
#	113413
#	126780
#	139928
#	153100
#	168983
#	182973
#	195455
#	208418
#	221963
#	236813
#	252315
#
# Disc length: 3558 seconds
#
# Revision: 0
# Processed by: cddbd v1.5.2PL0 Copyright (c) Steve Scherf et al.
# Submitted via: CDex 1.70beta2
#
DISCID=1b0de414
DTITLE=Django Reinhardt - Forever Gold
DYEAR=1991
DGENRE=Jazz
TTITLE0=Les Yeux Noirs
TTITLE1=Swing 41
TTITLE2=Improvisation
TTITLE3=Honeysuckle Rose
TTITLE4=Eddie's Blues
TTITLE5=Bill Coleman Blues
TTITLE6=Minor's Swing
TTITLE7=Tears
TTITLE8=Younger Generation
TTITLE9=I Got Rhythm
TTITLE10=Christmas Swing
TTITLE11=Swingin' With Django
TTITLE12=Manoir De Mes Rèves
TTITLE13=After You've Gone
TTITLE14=Limehouse Blues
TTITLE15=Nagasaki
TTITLE16=Crazy Rhythm
TTITLE17=Out Of Nowhere
TTITLE18=Chicago
TTITLE19=Georgia On My Mind
EXTD=YEAR: 1991
EXTT0=
EXTT1=
EXTT2=
EXTT3=
EXTT4=
EXTT5=
EXTT6=
EXTT7=
EXTT8=
EXTT9=
EXTT10=
EXTT11=
EXTT12=
EXTT13=
EXTT14=
EXTT15=
EXTT16=
EXTT17=
EXTT18=
EXTT19=
PLAYORDER=
